# xmcd
# 
# Track frame offsets:
#     150
#     21816
#     38632
#     62767
# 
# Disc length: 1124
# 
# Revision: 0
# Processed by: cddbd v1.5.2PL0 Copyright (c) Steve Scherf et al.
# Submitted via: fre:ac v1.0.17
# 
DISCID=29046204
DTITLE=三月のパンタシア - はじまりの速度
DYEAR=2016
DGENRE=Anime
TTITLE0=はじまりの速度
TTITLE1=花に夕景
TTITLE2=キミといた夏
TTITLE3=はじまりの速度 -Instrumental-
EXTD=
EXTT0=
EXTT1=
EXTT2=
EXTT3=
PLAYORDER=
